<svg xmlns="http://www.w3.org/2000/svg" width="400" height="70" viewBox="0 0 400 70">
    <defs>
        <linearGradient id="a" x1="146.017%" x2="-39.083%" y1="53.093%" y2="46.602%">
            <stop offset="0%" stop-color="#FFD872"/>
            <stop offset="20.346%" stop-color="#FECA6C"/>
            <stop offset="53.619%" stop-color="#F32222"/>
            <stop offset="100%" stop-color="#0B00BF"/>
        </linearGradient>
    </defs>
    <path fill="url(#a)" fill-rule="evenodd" d="M144.785 70c-18.974 0-34.356-15.446-34.356-34.5 0-19.054 15.382-34.5 34.356-34.5 18.974 0 34.356 15.446 34.356 34.5 0 19.054-15.382 34.5-34.356 34.5zm0-5.75c15.812 0 28.63-12.872 28.63-28.75s-12.818-28.75-28.63-28.75-28.63 12.872-28.63 28.75 12.818 28.75 28.63 28.75zM365.36 1c18.703 0 33.916 15.004 34.349 33.677.006.272 0 31.97 0 32.243 0 4.107-5.726 4.106-5.726 0 0-.272.005-31.968-.002-32.238-.43-15.5-13.079-27.933-28.62-27.933-15.552 0-28.219 12.41-28.632 27.925-.007.26 0 31.984 0 32.246 0 4.106-5.727 4.106-5.727 0 0-.257-.005-31.991 0-32.246C331.41 15.977 346.641 1 365.36 1zm-75.504 34.36c0 18.782-14.941 34.058-33.536 34.493-.27.006-31.836 0-32.109 0-4.09 0-4.089-5.75 0-5.75.271 0 31.835.005 32.104-.002 15.435-.43 27.816-13.133 27.816-28.74 0-15.618-12.36-28.337-27.808-28.752-.26-.007-31.85 0-32.112 0-4.089 0-4.089-5.75 0-5.75.256 0 31.858-.006 32.112 0 18.618.408 33.533 15.703 33.533 34.501zM0 35.505C0 16.706 14.914 1.41 33.533 1.002c.254-.005 31.856 0 32.111 0 4.09 0 4.09 5.75 0 5.75-.26 0-31.852-.006-32.111 0-15.449.416-27.808 13.135-27.808 28.753 0 15.607 12.38 28.31 27.816 28.74.269.008 31.833.002 32.103.002 4.09 0 4.09 5.75 0 5.75-.272 0-31.837.007-32.108 0C14.941 69.562 0 54.287 0 35.505zm366 14.35a4 4 0 1 1 0-8 4 4 0 0 1 0 8z"/>
</svg>
